<svg width="165" height="117" viewBox="0 0 165 117" fill="none" xmlns="http://www.w3.org/2000/svg">
<g clip-path="url(#clip0_666_2494)">
<g filter="url(#filter0_d_666_2494)">
<path d="M149.325 54.3699L122.371 88.6476C121.965 89.1614 121.219 89.251 120.702 88.8481L88.7281 63.7915C88.2138 63.3856 88.1241 62.6413 88.5272 62.1252L120.154 21.9028C120.56 21.389 121.306 21.2994 121.823 21.7023L147.839 42.0904L148.315 46.0412L148.825 50.2632L149.325 54.3699Z" fill="black"/>
</g>
<path d="M149.325 54.3699L122.371 88.6476C121.965 89.1614 121.219 89.251 120.702 88.8481L88.7281 63.7915C88.2138 63.3856 88.1241 62.6413 88.5272 62.1252L120.154 21.9028C120.56 21.389 121.306 21.2994 121.823 21.7023L147.839 42.0904L148.315 46.0412L148.825 50.2632L149.325 54.3699Z" fill="white"/>
<path d="M143.55 49.5C143.576 49.7144 143.105 50.703 149.409 56.1L150.15 55.2L143.55 49.5Z" fill="#CECECE"/>
<path d="M143.941 48.015C143.316 48.8189 143.455 49.9802 144.251 50.6119L150.15 55.2752L148.571 42.0752L143.941 48.015Z" fill="#EDEDED"/>
<path d="M107.327 67.5833C107.456 67.3912 107.327 67.1401 107.069 67.16C106.721 67.1935 106.37 67.1915 106.023 67.1541L105.549 67.0515C105.213 67.0126 105.147 66.8296 105.352 66.5027C105.718 66.4583 105.649 65.9561 105.284 65.9812C104.834 66.0122 104.234 66.0595 103.864 65.753C103.75 65.6478 103.654 65.527 103.579 65.3947C103.709 65.39 103.837 65.3729 103.963 65.3437C104.067 65.3186 104.116 65.2197 104.14 65.1355C104.21 64.8976 104.202 64.7063 104.22 64.5231C105.855 64.2572 107.552 63.6434 108.785 62.7711C109.025 62.602 108.857 62.2925 108.581 62.2991C107.294 62.3324 105.97 62.5665 104.813 63.1116C104.404 63.3029 104.003 63.5393 103.797 63.9337C103.778 63.9747 103.762 64.0167 103.748 64.0593C103.37 64.1107 102.99 64.1403 102.609 64.1479C102.1 64.1618 101.593 64.1002 101.106 63.9655C100.756 63.8628 100.225 63.7136 100.225 63.328C101.132 63.4115 102.019 63.2734 102.19 62.4978C102.445 61.3308 100.415 62.0318 99.7922 62.7512C99.3726 62.6792 98.9616 62.5694 98.5653 62.4232C98.225 62.3014 98.0047 62.7851 98.3459 62.9078C98.7489 63.0482 99.1635 63.1586 99.5856 63.2379C99.4574 64.4936 101.902 64.6997 102.801 64.6709C103.068 64.662 103.344 64.6406 103.622 64.6096C103.589 64.9168 103.622 64.8851 103.134 64.8784C102.887 64.8784 102.726 65.0926 102.866 65.295C103.124 65.6687 103.336 66.123 103.772 66.3409C103.91 66.4057 104.057 66.4517 104.209 66.4775C104.172 66.5413 104.166 66.6163 104.192 66.6844C104.54 67.4835 105.594 67.6859 106.501 67.7007C105.868 68.3105 105.018 68.689 104.107 68.7665C102.72 68.867 101.712 67.9755 100.82 67.1224C100.569 66.8823 100.109 67.1918 100.362 67.4341C101.335 68.3647 102.409 69.3146 103.904 69.2998C105.21 69.2836 106.634 68.6114 107.327 67.5833ZM101.161 62.4439C101.721 62.4188 101.1 62.7497 100.884 62.7874C100.745 62.8094 100.603 62.8173 100.462 62.811C100.579 62.6758 101.003 62.4513 101.16 62.4417L101.161 62.4439ZM104.658 63.7971C104.998 63.5193 105.595 63.3539 106.026 63.2217C106.506 63.077 106.999 62.9732 107.499 62.9115C106.564 63.3847 105.557 63.7286 104.513 63.9322C104.558 63.8848 104.607 63.8397 104.657 63.7971H104.658Z" fill="#4684AF"/>
<path d="M127.579 34.5241L140.261 44.4785C140.753 44.865 140.839 45.5775 140.453 46.0699C140.066 46.5623 139.354 46.6481 138.861 46.2616L126.18 36.3072C125.687 35.9207 125.601 35.2082 125.988 34.7158C126.374 34.2234 127.087 34.1375 127.579 34.5241Z" fill="#D2D4D8"/>
<path d="M140.473 55.2441L116.379 35.6648C116.318 35.6149 116.307 35.5232 116.355 35.4596L117.552 33.881C117.601 33.8177 117.689 33.8066 117.751 33.8561L141.847 53.433C141.908 53.4832 141.918 53.5748 141.87 53.6382L140.672 55.2176C140.649 55.2487 140.615 55.269 140.578 55.274C140.54 55.279 140.502 55.2682 140.473 55.2441Z" fill="#D2D4D8"/>
<path d="M137.999 59.3683L113.904 39.7897C113.843 39.7397 113.832 39.6481 113.88 39.5845L115.077 38.006C115.126 37.9427 115.214 37.9316 115.276 37.9811L139.371 57.5613C139.432 57.6112 139.443 57.7029 139.395 57.7665L138.198 59.3458C138.148 59.4084 138.06 59.4184 137.999 59.3683Z" fill="#D2D4D8"/>
<path d="M134.7 62.6694L110.604 43.0896C110.543 43.04 110.532 42.9486 110.58 42.8852L111.778 41.3058C111.826 41.2425 111.915 41.2314 111.976 41.2809L136.071 60.8607C136.1 60.8845 136.12 60.9194 136.124 60.9578C136.129 60.9962 136.118 61.0348 136.095 61.0652L134.897 62.6446C134.849 62.7074 134.761 62.7184 134.7 62.6694Z" fill="#D2D4D8"/>
<path d="M132.227 65.9701L108.129 46.3903C108.068 46.3403 108.057 46.2487 108.105 46.1851L109.303 44.6056C109.351 44.5423 109.439 44.5312 109.501 44.5807L133.597 64.1613C133.657 64.2112 133.668 64.3023 133.621 64.3658L132.422 65.9452C132.374 66.0069 132.288 66.0179 132.227 65.9701Z" fill="#D2D4D8"/>
<path d="M129.749 70.9194L105.654 51.3399C105.593 51.2899 105.582 51.1983 105.63 51.1347L106.827 49.5553C106.876 49.4923 106.964 49.4815 107.026 49.5312L131.122 69.1099C131.182 69.1601 131.193 69.2517 131.145 69.3151L129.947 70.8937C129.899 70.9572 129.811 70.9687 129.749 70.9194Z" fill="#D2D4D8"/>
<path d="M127.274 73.3934L103.178 53.8143C103.118 53.764 103.107 53.6724 103.155 53.609L104.353 52.0304C104.401 51.9671 104.489 51.956 104.551 52.0055L128.646 71.5847C128.707 71.6346 128.718 71.7263 128.67 71.7899L127.473 73.3693C127.424 73.4323 127.336 73.4431 127.274 73.3934Z" fill="#D2D4D8"/>
<path d="M114.446 79.2343C113.265 78.3073 112.758 76.7599 113.162 75.3135C113.566 73.8671 114.802 72.8066 116.292 72.6265C117.783 72.4464 119.236 73.1822 119.972 74.4908C120.709 75.7993 120.585 77.4229 119.658 78.6046C118.392 80.2162 116.06 80.4979 114.446 79.2343ZM118.535 74.0253C117.272 73.0323 115.443 73.2516 114.45 74.5151C113.457 75.7786 113.676 77.608 114.94 78.601C116.203 79.5941 118.032 79.3748 119.025 78.1113C120.016 76.8473 119.797 75.0192 118.535 74.0253Z" fill="#D2D4D8"/>
<g filter="url(#filter1_d_666_2494)">
<path d="M79.9163 61.8005L44.0465 86.5832C43.9355 86.6589 43.7857 86.629 43.7107 86.5163L14.0661 41.6697C13.9918 41.5566 14.0211 41.4033 14.1316 41.3272L50.0038 16.542C50.1144 16.466 50.2643 16.496 50.3388 16.6089L79.9833 61.4556C80.0196 61.5102 80.033 61.5775 80.0204 61.6424C80.0078 61.7072 79.9703 61.7641 79.9163 61.8005Z" fill="black"/>
</g>
<path d="M79.9163 61.8005L44.0465 86.5832C43.9355 86.6589 43.7857 86.629 43.7107 86.5163L14.0661 41.6697C13.9918 41.5566 14.0211 41.4033 14.1316 41.3272L50.0038 16.542C50.1144 16.466 50.2643 16.496 50.3388 16.6089L79.9833 61.4556C80.0196 61.5102 80.033 61.5775 80.0204 61.6424C80.0078 61.7072 79.9703 61.7641 79.9163 61.8005Z" fill="white"/>
<path d="M33.7561 35.2377L22.0863 43.6961C22.014 43.7483 21.9159 43.7279 21.867 43.6505L20.652 41.7226C20.6033 41.645 20.6223 41.5398 20.6944 41.4873L32.3642 33.0289C32.4365 32.9767 32.5346 32.9971 32.5836 33.0745L33.7978 35.0024C33.8466 35.0798 33.828 35.185 33.7561 35.2377Z" fill="#D2D4D8"/>
<path d="M53.5522 29.3492L24.6054 48.6475C24.5306 48.6965 24.4298 48.6773 24.3791 48.6042L23.128 46.7742C23.0777 46.7007 23.0969 46.601 23.1711 46.5509L52.1187 27.2535C52.1541 27.2288 52.1981 27.2194 52.2406 27.2274C52.2832 27.2354 52.3206 27.2601 52.3442 27.2959L53.5977 29.126C53.6475 29.2 53.6272 29.2999 53.5522 29.3492Z" fill="#D2D4D8"/>
<path d="M56.8534 34.2991L27.9083 53.5962C27.8728 53.6208 27.8287 53.6301 27.7862 53.6219C27.7436 53.6138 27.7063 53.5889 27.6828 53.553L26.4294 51.7238C26.4042 51.6888 26.3947 51.6451 26.4029 51.6029C26.4112 51.5607 26.4366 51.5238 26.4732 51.5005L55.4184 32.2034C55.4538 32.1788 55.4979 32.1695 55.5404 32.1777C55.583 32.1859 55.6203 32.2108 55.6439 32.2467L56.8972 34.0758C56.9474 34.1495 56.9278 34.2492 56.8534 34.2991Z" fill="#D2D4D8"/>
<path d="M60.9794 39.2482L32.0316 58.5464C31.9962 58.571 31.9521 58.5803 31.9096 58.5721C31.867 58.564 31.8297 58.5391 31.8062 58.5031L30.5528 56.6739C30.5027 56.6002 30.5222 56.5004 30.5967 56.4506L59.5412 37.1524C59.6158 37.1029 59.717 37.1223 59.7675 37.1957L61.02 39.0257C61.0452 39.0603 61.0552 39.1035 61.0475 39.1455C61.0398 39.1874 61.0152 39.2245 60.9794 39.2482Z" fill="#D2D4D8"/>
<path d="M63.4537 43.3747L34.5086 62.6726C34.434 62.7221 34.3329 62.7027 34.2824 62.6293L33.029 60.7993C33.0041 60.7643 32.9947 60.7208 33.0029 60.6789C33.0112 60.6369 33.0364 60.6001 33.0728 60.5768L62.0179 41.279C62.0534 41.2541 62.0976 41.2447 62.1404 41.2529C62.1831 41.261 62.2206 41.2861 62.2441 41.3222L63.4975 43.1515C63.5472 43.2252 63.5277 43.3246 63.4537 43.3747Z" fill="#D2D4D8"/>
<path d="M66.7546 48.3625L46.0334 62.6723C45.96 62.7227 45.8606 62.703 45.8109 62.6282L44.5786 60.7644C44.5541 60.7288 44.5448 60.6845 44.5529 60.6418C44.5611 60.5991 44.5859 60.5615 44.6217 60.5379L65.3429 46.2281C65.4162 46.1777 65.5157 46.1974 65.5654 46.2722L66.7977 48.1351C66.847 48.2101 66.8278 48.3118 66.7546 48.3625Z" fill="#D2D4D8"/>
<path d="M70.0529 53.2718L41.1074 72.5727C41.033 72.6224 40.9319 72.6034 40.8812 72.5303L39.6278 70.7001C39.5776 70.6265 39.5972 70.5267 39.6716 70.4768L68.6171 51.1775C68.6918 51.1285 68.7926 51.1477 68.8434 51.2208L70.0967 53.0509C70.1211 53.0858 70.1303 53.1289 70.122 53.1705C70.1138 53.2121 70.0888 53.2486 70.0529 53.2718Z" fill="#D2D4D8"/>
<path d="M73.3538 58.2222L44.4082 77.5222C44.3335 77.5717 44.2324 77.5524 44.1819 77.4789L42.9293 75.6495C42.9043 75.6146 42.8947 75.5712 42.9028 75.5292C42.911 75.4872 42.936 75.4503 42.9723 75.427L71.9179 56.127C71.9925 56.0775 72.0937 56.0969 72.1442 56.1703L73.3976 57.9997C73.4472 58.0732 73.4277 58.1724 73.3538 58.2222Z" fill="#D2D4D8"/>
<g filter="url(#filter2_d_666_2494)">
<path d="M51.334 62.6956C51.1769 62.7231 51.0271 62.6188 50.9984 62.4621L41.2544 8.25837C41.2269 8.10144 41.3313 7.95173 41.4882 7.92313L85.6167 0.00428968C85.7734 -0.0227612 85.9228 0.0808966 85.9522 0.237056L95.6955 54.4415C95.7234 54.5983 95.6193 54.7482 95.4625 54.7768L51.334 62.6956Z" fill="black"/>
</g>
<path d="M51.334 62.6956C51.1769 62.7231 51.0271 62.6188 50.9984 62.4621L41.2544 8.25837C41.2269 8.10144 41.3313 7.95173 41.4882 7.92313L85.6167 0.00428968C85.7734 -0.0227612 85.9228 0.0808966 85.9522 0.237056L95.6955 54.4415C95.7234 54.5983 95.6193 54.7482 95.4625 54.7768L51.334 62.6956Z" fill="white"/>
<path d="M56.3414 31.6309L61.6663 30.6747L64.3717 45.7409L59.0468 46.6971L56.3414 31.6309Z" fill="#D2D4D8"/>
<path d="M63.4307 34.5488L68.7555 33.5927L70.7317 44.5978L65.4068 45.554L63.4307 34.5488Z" fill="#D2D4D8"/>
<path d="M70.3011 36.6768L75.626 35.7206L77.0178 43.4711L71.6929 44.4273L70.3011 36.6768Z" fill="#D2D4D8"/>
<path d="M75.6025 30.3809L80.9274 29.4247L83.2488 42.3523L77.9239 43.3085L75.6025 30.3809Z" fill="#D2D4D8"/>
<path d="M69.186 13.615L47.527 17.3231C47.4519 17.3346 47.3808 17.2869 47.367 17.2155L47.0268 15.4122C47.0147 15.3406 47.0648 15.2728 47.1397 15.2596L68.7987 11.5515C68.8738 11.54 68.9449 11.5877 68.9587 11.6591L69.2981 13.4617C69.3107 13.5333 69.2609 13.6015 69.186 13.615Z" fill="#D2D4D8"/>
<path d="M79.0877 16.0571L47.5199 21.4487C47.4458 21.4601 47.3757 21.4131 47.3621 21.3429L47.0267 19.5694C47.0152 19.4991 47.0644 19.4327 47.138 19.4193L78.7058 14.027C78.7798 14.016 78.8496 14.0628 78.8636 14.1328L79.1982 15.907C79.2102 15.9772 79.1612 16.0438 79.0877 16.0571Z" fill="#D2D4D8"/>
<path d="M84.8647 18.5662L49.1707 24.7484C49.0965 24.7595 49.0265 24.7119 49.0124 24.6408L48.6768 22.8365C48.6648 22.7648 48.7144 22.697 48.7884 22.6838L84.4785 16.5016C84.5527 16.4905 84.6227 16.5381 84.6368 16.6092L84.9731 18.4128C84.9854 18.4836 84.9376 18.5512 84.8647 18.5662Z" fill="#D2D4D8"/>
<path d="M54.8284 50.6917L78.0946 46.5138C78.6854 46.4077 79.2504 46.8007 79.3564 47.3915C79.4625 47.9822 79.0696 48.5472 78.4788 48.6533L55.2126 52.8311C54.6218 52.9372 54.0568 52.5443 53.9508 51.9535C53.8447 51.3627 54.2376 50.7978 54.8284 50.6917Z" fill="#D2D4D8"/>
<path d="M90.6397 51.5662L54.9457 57.7484C54.8715 57.7595 54.8015 57.7119 54.7874 57.6408L54.4519 55.8365C54.4399 55.7648 54.4894 55.697 54.5635 55.6838L90.2535 49.5016C90.3277 49.4905 90.3978 49.5381 90.4118 49.6092L90.7482 51.4128C90.7604 51.4836 90.7126 51.5512 90.6397 51.5662Z" fill="#D2D4D8"/>
<path d="M68.3575 26.709L50.0005 29.6984C49.9256 29.7093 49.8547 29.664 49.8409 29.5963L49.5017 27.8864C49.49 27.8185 49.5398 27.7545 49.6142 27.7416L67.9752 24.7515C68.0501 24.741 68.1207 24.7861 68.1349 24.8536L68.4733 26.5643C68.4852 26.6332 68.4335 26.6979 68.3575 26.709Z" fill="#D2D4D8"/>
<path d="M85.6867 23.5708L69.7953 26.3985C69.7212 26.41 69.6512 26.3611 69.6372 26.2881L69.302 24.4364C69.2895 24.3627 69.3392 24.2928 69.4134 24.2797L85.3048 21.452C85.379 21.4401 85.4493 21.4891 85.4629 21.5624L85.7981 23.4134C85.8106 23.4872 85.761 23.5573 85.6867 23.5708Z" fill="#D2D4D8"/>
<path d="M71.3067 10.303L82.0808 8.36833C82.6716 8.26225 83.2365 8.65517 83.3426 9.24596C83.4487 9.83675 83.0558 10.4017 82.465 10.5078L71.6908 12.4425C71.1 12.5486 70.5351 12.1556 70.429 11.5648C70.3229 10.974 70.7159 10.4091 71.3067 10.303Z" fill="#D2D4D8"/>
<g opacity="0.2">
<path d="M113.636 75.062L71.1484 61.2639C71.0758 61.2404 71.0157 61.1894 70.9811 61.1221C70.9466 61.0547 70.9406 60.9766 70.9644 60.9049L88.1254 9.27112C88.1756 9.12193 88.3382 9.04072 88.4895 9.08924L130.977 22.8873C131.128 22.9369 131.21 23.0976 131.161 23.2471L113.997 74.8785C113.948 75.0271 113.787 75.1089 113.636 75.062Z" fill="#3D3D3D"/>
<path d="M110.425 25.416L104.268 35.948L92.6177 39.8232C94.3629 44.9489 99.3237 48.3189 104.79 48.0924C110.257 47.8658 114.915 44.0973 116.22 38.8451C117.525 33.593 115.163 28.1202 110.425 25.416Z" fill="#3D3D3D"/>
<path d="M109.778 23.3788C106.23 21.3526 101.894 21.2082 98.2157 22.9939L103.625 33.9045L109.778 23.3788Z" fill="#3D3D3D"/>
<path d="M96.8499 24.0312C91.2996 26.7069 88.6273 33.0441 90.6119 38.8242L102.262 34.949L96.8499 24.0312Z" fill="#3D3D3D"/>
<path d="M96.401 52.0793L81.1038 47.1104C81.0727 47.1009 81.0468 47.0794 81.0319 47.0508C81.017 47.0222 81.0143 46.9889 81.0245 46.9583L81.5488 45.3794C81.5587 45.3478 81.5813 45.3216 81.6112 45.3068C81.6411 45.292 81.6759 45.2899 81.7074 45.301L97.0046 50.2691C97.0367 50.2787 97.0634 50.301 97.0784 50.3306C97.0934 50.3603 97.0954 50.3947 97.0839 50.4259L96.5596 52.0048C96.5487 52.0355 96.5258 52.0607 96.496 52.0747C96.4662 52.0887 96.432 52.0903 96.401 52.0793Z" fill="#3D3D3D"/>
<path d="M103.274 58.1446L79.9562 50.5714C79.925 50.5617 79.8991 50.5401 79.8842 50.5113C79.8693 50.4826 79.8666 50.4492 79.8768 50.4185L80.4011 48.8396C80.4108 48.8079 80.4334 48.7815 80.4634 48.7667C80.4934 48.7518 80.5282 48.7498 80.5597 48.7612L103.878 56.3344C103.942 56.3554 103.978 56.4235 103.957 56.4873L103.432 58.0662C103.422 58.0978 103.4 58.124 103.37 58.1388C103.34 58.1536 103.306 58.1557 103.274 58.1446Z" fill="#3D3D3D"/>
<path d="M94.2603 59.622L78.6356 54.5457C78.5714 54.5251 78.536 54.4572 78.5562 54.3936L79.0813 52.8147C79.0911 52.7841 79.1129 52.7586 79.1418 52.7439C79.1706 52.7292 79.2042 52.7264 79.2352 52.7363L94.8599 57.8126C94.9245 57.8331 94.96 57.9016 94.9392 57.9654L94.4142 59.5444C94.393 59.6075 94.3244 59.6421 94.2603 59.622Z" fill="#3D3D3D"/>
<path d="M106.113 57.0616L113.089 59.3275C113.587 59.489 113.859 60.0228 113.697 60.5199C113.697 60.5219 113.696 60.524 113.695 60.526C113.529 61.0264 112.99 61.2988 112.488 61.1359L105.512 58.87C105.015 58.7085 104.743 58.1747 104.904 57.6777C104.905 57.6756 104.906 57.6735 104.906 57.6715C105.073 57.1711 105.612 56.8987 106.113 57.0616Z" fill="#3D3D3D"/>
<path d="M99.4138 51.0523L114.239 55.8674C114.736 56.0288 115.008 56.5627 114.846 57.0597C114.846 57.0618 114.845 57.0639 114.844 57.0659C114.678 57.5663 114.139 57.8387 113.637 57.6758L98.8126 52.8607C98.3156 52.6993 98.0435 52.1654 98.2049 51.6684C98.2056 51.6663 98.2063 51.6643 98.207 51.6622C98.3733 51.1618 98.9123 50.8895 99.4138 51.0523Z" fill="#3D3D3D"/>
</g>
<g filter="url(#filter3_d_666_2494)">
<path d="M115.284 69.2858L72.7977 55.4875C72.6468 55.438 72.5648 55.2771 72.6145 55.1277L89.7773 3.49573C89.8275 3.34654 89.99 3.26533 90.1413 3.31385L132.627 17.1121C132.778 17.1617 132.86 17.3226 132.81 17.4719L115.648 69.1039C115.597 69.2531 115.435 69.3343 115.284 69.2858Z" fill="black"/>
</g>
<path d="M115.284 69.2858L72.7977 55.4875C72.6468 55.438 72.5648 55.2771 72.6145 55.1277L89.7773 3.49573C89.8275 3.34654 89.99 3.26533 90.1413 3.31385L132.627 17.1121C132.778 17.1617 132.86 17.3226 132.81 17.4719L115.648 69.1039C115.597 69.2531 115.435 69.3343 115.284 69.2858Z" fill="white"/>
<path d="M112.044 19.7998L106.108 30.5226L94.875 34.4689C96.5576 39.688 101.341 43.1195 106.611 42.8889C111.882 42.6582 116.374 38.821 117.632 33.4732C118.89 28.1254 116.613 22.553 112.044 19.7998Z" fill="#D2D4D8"/>
<path opacity="0.490782" d="M111.375 18.2711C110.589 17.8169 109.759 17.4447 108.898 17.1603C105.635 16.0826 102.082 16.3314 99 17.8531L104.789 29.7L111.375 18.2711Z" fill="#6977E9"/>
<path d="M98.9685 18.9746C93.0134 21.66 90.1459 28.022 92.2754 33.8246L104.775 29.9344L98.9685 18.9746Z" fill="#D2D4D8"/>
<path d="M99.1162 46.1925L83.4138 41.3681C83.381 41.3586 83.3538 41.3369 83.3384 41.3082C83.323 41.2795 83.3209 41.2461 83.3324 41.2159L83.8713 39.6826C83.8815 39.6519 83.9047 39.6264 83.9354 39.6121C83.9661 39.5977 84.0018 39.5957 84.0342 39.6064L99.7366 44.4309C99.7693 44.4406 99.7963 44.4623 99.8117 44.4909C99.827 44.5196 99.8293 44.5529 99.818 44.5831L99.279 46.1164C99.269 46.1472 99.2459 46.1728 99.2151 46.1872C99.1843 46.2016 99.1486 46.2036 99.1162 46.1925Z" fill="#D4E8E8"/>
<path d="M105.74 52.793L82.5858 45.4824C82.5541 45.4729 82.5278 45.4514 82.5129 45.4229C82.498 45.3943 82.4959 45.3612 82.5071 45.3311L83.0284 43.8071C83.0383 43.7766 83.0607 43.7513 83.0904 43.737C83.1201 43.7227 83.1546 43.7207 83.1859 43.7314L106.34 51.042C106.371 51.0512 106.397 51.0719 106.412 51.0995C106.426 51.1271 106.429 51.1593 106.419 51.1888L105.898 52.7128C105.89 52.7443 105.867 52.7708 105.837 52.7861C105.807 52.8013 105.772 52.8038 105.74 52.793Z" fill="#D4E8E8"/>
<path d="M95.832 54.4427L80.111 49.5873C80.0797 49.5781 80.0536 49.5576 80.0386 49.5302C80.0236 49.5029 80.0209 49.471 80.0312 49.4418L80.5586 47.9316C80.5684 47.9012 80.5911 47.876 80.6213 47.8618C80.6515 47.8476 80.6865 47.8457 80.7182 47.8566L96.4392 52.7112C96.5042 52.7309 96.54 52.7964 96.519 52.8574L95.9916 54.3677C95.9818 54.398 95.9591 54.4232 95.9289 54.4374C95.8987 54.4516 95.8637 54.4535 95.832 54.4427Z" fill="#D4E8E8"/>
<path d="M108.151 51.691L115.084 53.9691C115.587 54.1345 115.861 54.6766 115.696 55.1799C115.531 55.6832 114.989 55.9571 114.485 55.7917L107.552 53.5136C107.049 53.3482 106.775 52.8062 106.94 52.3029C107.106 51.7996 107.648 51.5257 108.151 51.691Z" fill="#D4E8E8"/>
<path d="M116.459 51.9687L99.9112 46.4349C99.8798 46.4249 99.8537 46.4024 99.8386 46.3726C99.8236 46.3428 99.8209 46.3081 99.8312 46.2763L100.36 44.6373C100.381 44.571 100.451 44.5346 100.516 44.5559L117.064 50.0897C117.095 50.0997 117.121 50.1222 117.136 50.152C117.152 50.1818 117.154 50.2165 117.144 50.2484L116.615 51.8873C116.594 51.9536 116.524 51.99 116.459 51.9687Z" fill="#D4E8E8"/>
<g filter="url(#filter4_d_666_2494)">
<path d="M116.325 43.3327V93.34C116.325 94.646 115.227 95.7002 113.871 95.7002H53.6103C52.2546 95.7002 51.15 94.646 51.15 93.34V36.1926C51.15 34.8866 52.2561 33.8252 53.6103 33.8252H67.1475C67.9891 33.8204 68.7758 34.2435 69.2372 34.9492L72.3588 39.8359C72.8173 40.5451 73.6056 40.9702 74.4486 40.963H113.873C115.227 40.9685 116.325 42.0266 116.325 43.3327Z" fill="black"/>
</g>
<path d="M116.325 43.3327V93.34C116.325 94.646 115.227 95.7002 113.871 95.7002H53.6103C52.2546 95.7002 51.15 94.646 51.15 93.34V36.1926C51.15 34.8866 52.2561 33.8252 53.6103 33.8252H67.1475C67.9891 33.8204 68.7758 34.2435 69.2372 34.9492L72.3588 39.8359C72.8173 40.5451 73.6056 40.9702 74.4486 40.963H113.873C115.227 40.9685 116.325 42.0266 116.325 43.3327Z" fill="url(#paint0_linear_666_2494)"/>
<path d="M116.325 43.3327V93.34C116.325 94.646 115.227 95.7002 113.871 95.7002H53.6103C52.2546 95.7002 51.15 94.646 51.15 93.34V36.1926C51.15 34.8866 52.2561 33.8252 53.6103 33.8252H67.1475C67.9891 33.8204 68.7758 34.2435 69.2372 34.9492L72.3588 39.8359C72.8173 40.5451 73.6056 40.9702 74.4486 40.963H113.873C115.227 40.9685 116.325 42.0266 116.325 43.3327Z" fill="url(#paint1_linear_666_2494)"/>
<path d="M110.921 42.0752H55.7287C54.5669 42.0752 53.625 43.0171 53.625 44.1789V92.7714C53.625 93.9333 54.5669 94.8752 55.7287 94.8752H110.921C112.083 94.8752 113.025 93.9333 113.025 92.7714V44.1789C113.025 43.0171 112.083 42.0752 110.921 42.0752Z" fill="#EFEFEF"/>
<path d="M110.921 42.9004H55.7287C54.5669 42.9004 53.625 43.8423 53.625 45.0041V93.5966C53.625 94.7585 54.5669 95.7004 55.7287 95.7004H110.921C112.083 95.7004 113.025 94.7585 113.025 93.5966V45.0041C113.025 43.8423 112.083 42.9004 110.921 42.9004Z" fill="white"/>
<path opacity="0.2" d="M116.325 44.5498V89.1189L115.875 92.9687C115.724 94.2598 114.822 95.3352 113.583 95.6998H53.6103C52.2546 95.6998 51.15 94.6406 51.15 93.3284V52.3769H61.6983C62.9889 52.3775 64.1561 51.6048 64.6674 50.4114L66.3345 46.5217C66.8402 45.3255 68.0065 44.5493 69.2973 44.5498H116.325Z" fill="#3D3D3D"/>
<path d="M116.887 93.6593C116.697 95.2935 115.329 96.525 113.703 96.525H53.6916C52.0658 96.525 50.6973 95.2936 50.5076 93.6593L46.2221 56.8052C46.115 55.8849 46.4019 54.9621 47.0102 54.2696C47.6186 53.5771 48.4905 53.1809 49.406 53.1809H63.1266C64.4072 53.181 65.565 52.4097 66.0714 51.2191L67.7234 47.3368C68.2298 46.1462 69.3876 45.375 70.6682 45.375H118.892C119.808 45.3743 120.68 45.7702 121.289 46.4628C121.898 47.1554 122.185 48.0786 122.078 48.9994L116.887 93.6593Z" fill="url(#paint2_linear_666_2494)"/>
</g>
<defs>
<filter id="filter0_d_666_2494" x="68.275" y="17.4502" width="101.05" height="107.65" filterUnits="userSpaceOnUse" color-interpolation-filters="sRGB">
<feFlood flood-opacity="0" result="BackgroundImageFix"/>
<feColorMatrix in="SourceAlpha" type="matrix" values="0 0 0 0 0 0 0 0 0 0 0 0 0 0 0 0 0 0 127 0" result="hardAlpha"/>
<feOffset dy="16"/>
<feGaussianBlur stdDeviation="10"/>
<feColorMatrix type="matrix" values="0 0 0 0 0 0 0 0 0 0 0 0 0 0 0 0 0 0 0.093482 0"/>
<feBlend mode="normal" in2="BackgroundImageFix" result="effect1_dropShadow_666_2494"/>
<feBlend mode="normal" in="SourceGraphic" in2="effect1_dropShadow_666_2494" result="shape"/>
</filter>
<filter id="filter1_d_666_2494" x="-5.97498" y="12.5" width="106" height="110.125" filterUnits="userSpaceOnUse" color-interpolation-filters="sRGB">
<feFlood flood-opacity="0" result="BackgroundImageFix"/>
<feColorMatrix in="SourceAlpha" type="matrix" values="0 0 0 0 0 0 0 0 0 0 0 0 0 0 0 0 0 0 127 0" result="hardAlpha"/>
<feOffset dy="16"/>
<feGaussianBlur stdDeviation="10"/>
<feColorMatrix type="matrix" values="0 0 0 0 0 0 0 0 0 0 0 0 0 0 0 0 0 0 0.093482 0"/>
<feBlend mode="normal" in2="BackgroundImageFix" result="effect1_dropShadow_666_2494"/>
<feBlend mode="normal" in="SourceGraphic" in2="effect1_dropShadow_666_2494" result="shape"/>
</filter>
<filter id="filter2_d_666_2494" x="21.25" y="-4" width="94.45" height="102.7" filterUnits="userSpaceOnUse" color-interpolation-filters="sRGB">
<feFlood flood-opacity="0" result="BackgroundImageFix"/>
<feColorMatrix in="SourceAlpha" type="matrix" values="0 0 0 0 0 0 0 0 0 0 0 0 0 0 0 0 0 0 127 0" result="hardAlpha"/>
<feOffset dy="16"/>
<feGaussianBlur stdDeviation="10"/>
<feColorMatrix type="matrix" values="0 0 0 0 0 0 0 0 0 0 0 0 0 0 0 0 0 0 0.093482 0"/>
<feBlend mode="normal" in2="BackgroundImageFix" result="effect1_dropShadow_666_2494"/>
<feBlend mode="normal" in="SourceGraphic" in2="effect1_dropShadow_666_2494" result="shape"/>
</filter>
<filter id="filter3_d_666_2494" x="52.6" y="-0.700195" width="100.225" height="106" filterUnits="userSpaceOnUse" color-interpolation-filters="sRGB">
<feFlood flood-opacity="0" result="BackgroundImageFix"/>
<feColorMatrix in="SourceAlpha" type="matrix" values="0 0 0 0 0 0 0 0 0 0 0 0 0 0 0 0 0 0 127 0" result="hardAlpha"/>
<feOffset dy="16"/>
<feGaussianBlur stdDeviation="10"/>
<feColorMatrix type="matrix" values="0 0 0 0 0 0 0 0 0 0 0 0 0 0 0 0 0 0 0.093482 0"/>
<feBlend mode="normal" in2="BackgroundImageFix" result="effect1_dropShadow_666_2494"/>
<feBlend mode="normal" in="SourceGraphic" in2="effect1_dropShadow_666_2494" result="shape"/>
</filter>
<filter id="filter4_d_666_2494" x="31.15" y="29.8252" width="105.175" height="101.875" filterUnits="userSpaceOnUse" color-interpolation-filters="sRGB">
<feFlood flood-opacity="0" result="BackgroundImageFix"/>
<feColorMatrix in="SourceAlpha" type="matrix" values="0 0 0 0 0 0 0 0 0 0 0 0 0 0 0 0 0 0 127 0" result="hardAlpha"/>
<feOffset dy="16"/>
<feGaussianBlur stdDeviation="10"/>
<feColorMatrix type="matrix" values="0 0 0 0 0.411765 0 0 0 0 0.423529 0 0 0 0 0.894118 0 0 0 0.302194 0"/>
<feBlend mode="normal" in2="BackgroundImageFix" result="effect1_dropShadow_666_2494"/>
<feBlend mode="normal" in="SourceGraphic" in2="effect1_dropShadow_666_2494" result="shape"/>
</filter>
<linearGradient id="paint0_linear_666_2494" x1="83.7375" y1="33.8252" x2="83.7375" y2="95.7002" gradientUnits="userSpaceOnUse">
<stop stop-color="#7A62E4"/>
<stop offset="1" stop-color="#656EE4"/>
</linearGradient>
<linearGradient id="paint1_linear_666_2494" x1="55.165" y1="36.8788" x2="107.541" y2="95.3646" gradientUnits="userSpaceOnUse">
<stop stop-color="#798CFB"/>
<stop offset="1" stop-color="#5760D5"/>
</linearGradient>
<linearGradient id="paint2_linear_666_2494" x1="50.8757" y1="59.3349" x2="101.813" y2="99.7115" gradientUnits="userSpaceOnUse">
<stop stop-color="#798CFB"/>
<stop offset="1" stop-color="#E8524D"/>
</linearGradient>
<clipPath id="clip0_666_2494">
<rect width="165" height="116.325" fill="white"/>
</clipPath>
</defs>
</svg>
